<svg height="512" viewBox="0 0 54 60" width="512" xmlns="http://www.w3.org/2000/svg"><g id="Page-1" fill="none" fill-rule="evenodd"><g id="019---Cherries" fill-rule="nonzero" transform="translate(-1)"><path id="Shape" d="m26 45c-.0023168 1.1293204.1354004 2.2545709.41 3.35-4.295443 4.787028-11.2999437 6.031552-16.98149859 3.0171863-5.68155493-3.0143657-8.57839169-9.5120735-7.023003-15.7528453 1.55538869-6.2407719 7.1628264-10.6189578 13.59450159-10.614341.34 0 .68.01 1.02.04 1.4065721.0958683 2.7897224.4096072 4.1.93 4.2236286 1.6656273 7.3797714 5.2726476 8.47 9.68-2.313214 2.5645739-3.5924571 5.8963074-3.59 9.35z" fill="#ef314c"/><path id="Shape" d="m29.59 35.65c-1.0902286-4.4073524-4.2463714-8.0143727-8.47-9.68-1.3102776-.5203928-2.6934279-.8341317-4.1-.93-.34-.03-.68-.04-1.02-.04-.512884.0014729-1.025308.0308496-1.535.088 1.2532523.1235993 2.4833052.4204273 3.655.882 4.2236286 1.6656273 7.3797714 5.2726476 8.47 9.68-2.313214 2.5645739-3.5924571 5.8963074-3.59 9.35-.0023168 1.1293204.1354004 2.2545709.41 3.35-2.2987326 2.5722844-5.4700008 4.2003208-8.9 4.569.4949314.0527524.9922667.0797887 1.49.081 3.9744144.0057978 7.7621035-1.6861094 10.41-4.65-.2745996-1.0954291-.4123168-2.2206796-.41-3.35-.0024571-3.4536926 1.276786-6.7854261 3.59-9.35z" fill="#bb193b"/><path id="Shape" d="m54 45c-.0067162 7.0742687-5.2898029 13.0319338-12.3124963 13.8846349s-13.5780153-3.667535-15.2775037-10.5346349c-.2745996-1.0954291-.4123168-2.2206796-.41-3.35.008577-7.0015976 5.1827535-12.9228706 12.12-13.87.6226592-.0891097 1.251002-.132559 1.88-.13.6861073-.0008975 1.371331.0492408 2.05.15 6.8646481 1.0182942 11.9483097 6.9102368 11.95 13.85z" fill="#ef314c"/><path id="Shape" d="m42.05 31.15c-.678669-.1007592-1.3638927-.1508975-2.05-.15-.5012711.001587-1.0020583.0313003-1.5.089.182.02.366.034.547.061 6.9617561 1.0349478 12.0728959 7.0775281 11.938817 14.1145153s-5.4716894 12.8804827-12.467817 13.6494847c.4921579.0545431.9868366.0832491 1.482.086 7.3356092.0032045 13.4298343-5.6564412 13.9683415-12.9722585s-4.6613267-13.8068031-11.9183415-14.8777415z" fill="#bb193b"/><path id="Shape" d="m53 4s-10.16 12.01-10.95 27.15c-.678669-.1007592-1.3638927-.1508975-2.05-.15-.628998-.002559-1.2573408.0408903-1.88.13 1.41-17.66 8.88-25.13 8.88-25.13-2.5678174.67209259-5.0606387 1.60355005-7.44 2.78.44-1.07.75-1.97.94-2.56.1421171-.43910993-.0410717-.91789875-.44-1.15-.29-.17-.67-.39-1.13-.64 3.5164259-1.64252318 7.2409183-2.79654387 11.07-3.43 0 0 2 0 3 3z" fill="#60a917"/><path id="Shape" d="m24.31 21.35c-1.1579575 1.472471-2.2233418 3.0154414-3.19 4.62-1.3102776-.5203928-2.6934279-.8341317-4.1-.93.8426354-1.4847649 1.7639468-2.9234794 2.76-4.31 1.4812494.3795898 3.0012293.5876224 4.53.62z" fill="#60a917"/><path id="Shape" d="m40.5 6.22c-.19.59-.5 1.49-.94 2.56-1.55 3.77-4.77 9.66-10.22 11.74-1.6095432.5905562-3.3160544.8721476-5.03.83-1.5287707-.0323776-3.0487506-.2404102-4.53-.62-2.9093499-.7570918-5.6993693-1.9148321-8.29-3.44-.3977876-.2379584-.5799061-.7180888-.44-1.16.84-2.65 4.15-11.62 11.16-14.3 6.16-2.35 13.43.83 16.72 2.6.46.25.84.47 1.13.64.3989283.23210125.5821171.71089007.44 1.15z" fill="#008a00"/><path id="Shape" d="m40.06 5.07c-.29-.17-.67-.39-1.13-.64-2.711-1.459-8.125-3.867-13.393-3.357 3.6485819.4374924 7.1779 1.57748286 10.393 3.357.46.25.84.47 1.13.64.3989283.23210125.5821171.71089007.44 1.15-.19.59-.5 1.49-.94 2.56-1.55 3.77-4.77 9.66-10.22 11.74-1.0874967.4038178-2.224971.657487-3.381.754.448.041.9.07 1.351.076 1.7139456.0421476 3.4204568-.2394438 5.03-.83 5.45-2.08 8.67-7.97 10.22-11.74.44-1.07.75-1.97.94-2.56.1421171-.43910993-.0410717-.91789875-.44-1.15z" fill="#007900"/><g fill="#f5f5f5"><path id="Shape" d="m30.861 41.939c-.3386947-.0003325-.6542021-.1720814-.8383325-.4563528-.1841303-.2842714-.2118552-.642425-.0736675-.9516472 1.7700856-3.9678813 5.7062037-6.5255161 10.051-6.531.5522847 0 1 .4477153 1 1s-.4477153 1-1 1c-3.5556483.0053213-6.7764925 2.098772-8.225 5.346-.160787.3608536-.5189459.5932259-.914.593z"/><circle id="Oval" cx="30" cy="45" r="1"/><path id="Shape" d="m6.861 35.939c-.33869472-.0003325-.65420212-.1720814-.83833246-.4563528-.18413035-.2842714-.21185521-.642425-.07366754-.9516472 1.77008556-3.9678813 5.7062037-6.5255161 10.051-6.531.5522847 0 1 .4477153 1 1s-.4477153 1-1 1c-3.5556483.0053213-6.77649248 2.098772-8.225 5.346-.16078698.3608536-.51894589.5932259-.914.593z"/><circle id="Oval" cx="6" cy="39" r="1"/></g><path id="Shape" d="m43.111 30.329c1.1-14.206 10.555-25.568 10.653-25.683.2249204-.26662688.2946495-.63118927.184-.962-1.214-3.642-3.837-3.684-3.948-3.684-.0549778-.00030799-.1098699.00437793-.164.014-3.7498596.62725887-7.4019596 1.74063839-10.864 3.312-3.611-1.87-10.848-4.818-17.117-2.426-7.414 2.826-10.876 12.143-11.761 14.932-.2831671.8829199.0836344 1.8441641.883 2.314 2.2667481 1.334014 4.6809701 2.3998423 7.194 3.176-.612.907-1.184 1.807-1.7 2.7-.156 0-.312-.019-.468-.019-6.68240589-.0070633-12.56361361 4.4071474-14.42329167 10.8255736-1.85967806 6.4184263.75071251 13.2929969 6.40181853 16.8594516 5.65110604 3.5664547 12.97992744 2.9645941 17.97347314-1.4760252 2.503427 6.751051 9.4526856 10.7689672 16.552476 9.5702959s12.3447571-7.2753621 12.4930139-14.474102c.1482569-7.19874-4.8420716-13.4862249-11.8864899-14.9761939zm6.927-28.321c.253.042 1.168.3 1.822 1.808-1.846 2.328-9.655 12.916-10.72 26.242-.378-.029-.755-.058-1.14-.058-.257 0-.507.026-.761.039 1.589-16.172 8.4-23.262 8.468-23.332.3190158-.31943049.3844494-.81299362.1596872-1.20451486-.2247622-.39152123-.683976-.5838979-1.1206872-.46948514-1.8430068.48674287-3.6494701 1.10259783-5.406 1.843.04-.121.084-.251.117-.355.052006-.17139553.0809275-.34895999.086-.528 0-.012.007-.022.007-.035v-.02c.0061112-.48766074-.1684268-.960338-.49-1.327 2.8858101-1.20095721 5.8973417-2.07409341 8.978-2.603zm-19.98 31.792c-1.3426314-3.6065467-4.0192988-6.5595798-7.477-8.249.7-1.095 1.442-2.171 2.241-3.21 1.6635578-.0071321 3.3129398-.3063428 4.873-.884 5.611-2.14 8.957-8 10.638-11.93 1.2803901-.62214579 2.594805-1.17168272 3.937-1.646-2.344 3.5-6 10.68-7.072 22.391-2.6552656.5086337-5.1228624 1.7279168-7.14 3.528zm-7.49-31.03c1.424418-.52678767 2.9333967-.78777457 4.452-.77 3.808136.17408707 7.5275864 1.20719178 10.88 3.022-4.739.271-12.469 1.48-18.518 6.189-.2909098.2162911-.4419868.5730806-.3948566.9325094.0471301.3594289.2850862.6652064.621925.7991839s.7198075.0751726 1.0009316-.1536933c6.167-4.8 14.291-5.708 18.58-5.824-1.19 3.335-4.349 10.387-10.208 12.621-6.576 2.514-14.664-1.786-16.982-3.15.816-2.572 3.991-11.16 10.568-13.668zm-.142 19.454c-.6.8326667-1.1723333 1.6803333-1.717 2.543-.6677589-.2223861-1.3509233-.3955168-2.044-.518.4826667-.792 1.0023333-1.5886667 1.559-2.39.718.153 1.455.278 2.202.363zm-6.426 29.776c-7.17970175 0-13-5.8202983-13-13s5.82029825-13 13-13c.311 0 .62.008.95.038 1.3037737.088743 2.5857879.3798952 3.8.863 3.7553749 1.4863352 6.6071396 4.6329571 7.718 8.516-2.9201281 3.5067568-4.0826792 8.1532799-3.158 12.622-2.4395549 2.5256414-5.798554 3.9547494-9.31 3.961zm24 6c-7.1797017 0-13-5.8202983-13-13s5.8202983-13 13-13 13 5.8202983 13 13c-.008266 7.1762751-5.8237249 12.991734-13 13z" fill="#000"/></g></g></svg>