<svg id="Layer_1" enable-background="new 0 0 512 512" height="512" viewBox="0 0 512 512" width="512" xmlns="http://www.w3.org/2000/svg"><g><path d="m341.012 109.031c7.726-17.074 4.58-37.866-9.455-51.901s-34.827-17.181-51.901-9.455c-64.943-33.321-153.904-16.581-216.678 46.193-62.773 62.774-79.513 151.735-46.193 216.678-7.726 17.074-4.58 37.866 9.455 51.901s34.827 17.181 51.901 9.455c64.943 33.321 153.905 16.581 216.678-46.193s79.514-151.735 46.193-216.678z" fill="#f5ce31"/><circle cx="191.782" cy="67.216" fill="#f5a818" r="9.572"/><circle cx="150.422" cy="86.359" fill="#f5a818" r="9.572"/><circle cx="216.567" cy="89.671" fill="#f5a818" r="9.572"/><circle cx="175.808" cy="112.77" fill="#f5a818" r="9.572"/><path d="m200.026 381.74c78.324-19.589 149.184-100.561 156.398-178.7-108.247-72.695-244.476 18.982-223.341 143.604-120.336-58.29-102.918-222.938 4.307-302.006-109.977 43.813-168.336 171.311-120.605 265.908-17.717 41.969 24.965 77.838 61.347 61.359 35.394 18.32 80.285 21.551 121.894 9.835z" opacity=".15"/><g><g><path d="m430.521 228.26c55.342-18.806 81.472-89.182 81.472-89.182s-63.598-39.884-118.94-21.078-53.75 79.761-53.75 79.761 35.875 49.306 91.218 30.499z" fill="#57a633"/></g><g><path d="m512 139.08s-63.612-39.883-118.942-21.078c-55.343 18.8-53.763 79.763-53.763 79.763z" fill="#407a26"/></g></g><g><g><path d="m407.484 157.317c25.835-52.431-5.452-120.671-5.452-120.671s-73.173 16.768-99.008 69.199 18.393 94.407 18.393 94.407 60.232 9.497 86.067-42.935z" fill="#57a633"/></g><g><path d="m402.039 36.643s-73.182 16.779-99.009 69.2c-25.84 52.427 18.385 94.417 18.385 94.417z" fill="#407a26"/></g></g><path d="m319.009 169.116c-86.155 0-155.997 69.842-155.997 155.997 0 5.041.248 10.024.716 14.943-8.051 7.534-13.089 18.248-13.089 30.144 0 21.825 16.938 39.682 38.383 41.173 27.948 42.031 75.728 69.737 129.987 69.737 86.155 0 155.997-69.842 155.997-155.997s-69.842-155.997-155.997-155.997z" fill="#f5ce31"/><ellipse cx="345.008" cy="319.697" fill="#f5ce31" rx="137.506" ry="153.787" transform="matrix(.949 -.315 .315 .949 -83.036 124.722)"/><ellipse cx="345.008" cy="319.697" fill="#fff7d8" rx="121.447" ry="135.827" transform="matrix(.949 -.315 .315 .949 -83.036 124.722)"/><g fill="#f5ce31"><ellipse cx="345.008" cy="319.697" rx="14.721" ry="16.464" transform="matrix(.949 -.315 .315 .949 -83.036 124.722)"/><path d="m313.725 310.063-54.206-31.131c-3.33-1.912-7.22-.236-8.266 3.52-4.598 16.509-5.425 34.634-1.829 52.876.776 3.938 4.532 6.443 7.945 5.312l55.938-18.532c5.005-1.66 5.269-9.259.418-12.045z"/><path d="m298.445 222.427c-14.84 7.654-26.941 19.304-35.654 33.45-1.982 3.218-.81 7.802 2.52 9.714l54.206 31.131c4.851 2.786 9.975-2.023 8.12-7.622l-20.727-62.561c-1.264-3.817-5.262-5.764-8.465-4.112z"/><path d="m319.925 222.227 20.727 62.561c1.855 5.599 8.836 6.397 11.064 1.266l24.896-57.338c1.529-3.522-.267-7.899-3.778-9.297-15.436-6.146-32.099-8.266-48.573-5.546-3.556.588-5.6 4.537-4.336 8.354z"/><path d="m318.128 336.663-55.938 18.532c-3.413 1.131-4.93 5.383-3.201 9.005 8.007 16.78 19.493 30.826 33.038 41.324 3.082 2.388 7.203 1.41 8.732-2.112l24.896-57.338c2.229-5.131-2.521-11.069-7.527-9.411z"/><path d="m371.856 302.709 55.938-18.532c3.413-1.131 4.93-5.383 3.201-9.005-8.007-16.78-19.493-30.826-33.038-41.324-3.082-2.388-7.203-1.41-8.732 2.112l-24.896 57.338c-2.229 5.131 2.521 11.069 7.527 9.411z"/><path d="m376.259 329.309 54.206 31.131c3.33 1.912 7.22.236 8.266-3.52 4.598-16.509 5.425-34.634 1.829-52.876-.776-3.938-4.532-6.443-7.945-5.312l-55.938 18.532c-5.005 1.66-5.269 9.259-.418 12.045z"/><path d="m338.268 353.318-24.896 57.338c-1.529 3.522.267 7.899 3.778 9.297 15.436 6.146 32.099 8.266 48.573 5.546 3.556-.587 5.6-4.536 4.336-8.353l-20.727-62.561c-1.855-5.6-8.836-6.399-11.064-1.267z"/><path d="m362.347 350.271 20.727 62.561c1.265 3.817 5.262 5.765 8.466 4.112 14.84-7.654 26.941-19.304 35.654-33.45 1.982-3.218.81-7.802-2.52-9.714l-54.206-31.131c-4.852-2.785-9.976 2.024-8.121 7.622z"/></g></g></svg>