<svg height="512" viewBox="0 0 128 128" width="512" xmlns="http://www.w3.org/2000/svg"><g id="Layer_2" data-name="Layer 2"><path d="m98.0186 101.1266a50.6 50.6 0 1 1 -41.01-82.3l3.4589.0093a50.6462 50.6462 0 0 1 47.5259 61.5871z" fill="#3d7546"/><path d="m94.0676 33.3344a62.9494 62.9494 0 0 1 -45.6067 54.6947 62.6277 62.6277 0 0 1 -37.3-1.0007 50.6083 50.6083 0 0 0 86.8577 14.0982l9.9751-20.7033a50.6572 50.6572 0 0 0 -13.9261-47.0889z" fill="#315b35"/><path d="m56.1972 25.8473a16.1106 16.1106 0 0 1 9.082-16.286 14.18 14.18 0 0 1 16.4241 2.5442l-3.2541 3.0791a9.6994 9.6994 0 0 0 -11.1978-1.6c-9.2532 4.5359-5.8966 14.8147-6.5487 12.38z" fill="#2a422b"/><path d="m78.4492 15.1846 2.1763-2.0593a12.9927 12.9927 0 0 0 -14.1335-1.3333c-7.6723 3.6867-8.3108 9.8219-8.2378 14.1088l2.4485.0636c.6521 2.4347-2.7045-7.8442 6.5486-12.38a9.7 9.7 0 0 1 11.1979 1.6002z" fill="#203321"/><g fill="#7fbf6a"><path d="m25.2729 57.1356 5.464-6.5429 2.3418-7.1172 10.1474-5.0737 3.1223-5.0737v-5.4641l-9.7572.8366s-4.6834 8.53-5.8543 9.3109-6.6348 2.732-8.196 3.9029-3.9028 10.928-3.9028 10.928-4.2933 5.464-5.0738 7.0252 1.1709 9.97.39 10.8395c-.7641.8507-4.0021 11.6678-4.1387 12.1247a50.2485 50.2485 0 0 0 3.9044 9.9328l4.5274-8.1177v-10.729l7.0252-6.6349z"/><path d="m86.333 87.362-4.63-12.273 1.723-3.513-3.903-4.683 2.18-8.977-2.961-6.244 1.561-7.806-6.244-8.587-7.025 1.952 5.073 8.196-3.903 10.928 3.903 6.245-3.194 10.537 2.804 4.746-6.804 16.732z"/><path d="m54.9348 37.2309-10.5378 11.3184-1.5612 10.5377-5.464 9.7572.39 10.9478-4.6834 7.6885 1.3362 8.03-5.6294 6.3334 1.8309 9.7122a50.3331 50.3331 0 0 0 15.3771 6.86l-1.9865-21.8615 3.5126-6.6664-1.9514-5.2413 4.2931-7.9969-1.171-7.8058 7.4334-9.7572-1.1886-8.977 3.664-11.7086z"/><path d="m85.2743 26.41-5.7515 3.7959 8.7323 4.6835 1.4149 7.4152 7.143 6.6349-.5081 8.1961 5.0737 5.22-.39 5.8026 2.3417 1.2429-4.238 11 9.127-1.1419a50.5245 50.5245 0 0 0 -22.945-52.8492z"/></g><path d="m94.0651 33.36a62.7112 62.7112 0 0 1 -2.0631 11.111l4.8113 4.469-.5081 8.1961 5.0737 5.22-.39 5.8026 2.3417 1.2429-4.238 11 9.127-1.1419a50.4235 50.4235 0 0 0 -14.1545-45.8997z" fill="#669b50"/><path d="m83.4257 71.5762-3.4413-4.1295a62.8 62.8 0 0 1 -9.0989 9.0284l.8316 1.4076-6.804 16.732 21.42-7.2528-4.63-12.2732z" fill="#669b50"/><path d="m46.9688 88.41a63.0062 63.0062 0 0 1 -13.4122 1.9428l.8583 5.158-5.6294 6.3334 1.8309 9.7122a50.3331 50.3331 0 0 0 15.3771 6.86l-1.9868-21.8618 3.5126-6.6664z" fill="#669b50"/><path d="m11.1907 87.0388a50.32 50.32 0 0 0 2.53 5.7258l2.3832-4.273q-2.4905-.6265-4.9132-1.4528z" fill="#669b50"/><path d="m98.6587 76.1893 21.2755-8.031a47.2562 47.2562 0 0 1 -85.5193 32.2817l21.3982-8.0773z" fill="#3d7546"/><path d="m118.4055 68.7354-19.7468 7.4539-42.8456 16.1731-19.6986 7.4358c12.7778 15.8615 33.8622 22.7556 52.8871 15.5742s30.2946-26.2884 29.4039-46.637z" fill="#afd8a0"/><path d="m113.182 70.7071a40.319 40.319 0 0 1 -72.0149 27.1838z" fill="#db2e40"/><path d="m113.182 70.7071-15.712 5.931a54.2633 54.2633 0 0 1 -31.31 36.167 40.3193 40.3193 0 0 0 47.0222-42.098z" fill="#c61e32"/></g><g id="Layer_3" data-name="Layer 3"><g><path d="m120.9287 68.0537a.9994.9994 0 0 0 -1.3476-.831l-8.41 3.1746-1.0048.3793c.012-.458.0315-.9142.0315-1.3752a51.7677 51.7677 0 0 0 -46.7456-51.3589 10.7411 10.7411 0 0 1 4.24-3.56 8.6832 8.6832 0 0 1 10.041 1.4 1.0017 1.0017 0 0 0 1.4038.0288l3.2539-3.0791a1.0006 1.0006 0 0 0 .0386-1.414 15.1955 15.1955 0 0 0 -17.59-2.7544 16.5079 16.5079 0 0 0 -8.5544 9.2019 51.5931 51.5931 0 0 0 2.3135 103.1343c1.7173 0 3.4532-.0859 5.1582-.2549a.9724.9724 0 0 0 .5018-.2178 48.2456 48.2456 0 0 0 56.67-52.4736zm-34.1113 41.79a39.13 39.13 0 0 1 -44.0025-11.5058l56.1951-21.2126h.0019l13.229-4.9941a39.1326 39.1326 0 0 1 -25.4235 37.7126zm-21.0974-99.3837a13.21 13.21 0 0 1 14.5283 1.646l-1.8283 1.729a10.6276 10.6276 0 0 0 -11.6089-1.1485 12.4608 12.4608 0 0 0 -7.1488 12.6318 23.0893 23.0893 0 0 1 -2.5137-.0906l.0014-.01a15.1155 15.1155 0 0 1 8.57-14.7577zm-34.2054 100.4606-1.6552-8.78 5.3032-5.9658a.9986.9986 0 0 0 .2388-.8281l-1.2754-7.6631 4.49-7.3711a1.003 1.003 0 0 0 .1455-.5566l-.3808-10.668 5.3276-9.5122a1.0137 1.0137 0 0 0 .1167-.3423l1.5156-10.23 10.3259-11.0908a1 1 0 0 0 -1.4639-1.3633l-10.5376 11.3184a1.0042 1.0042 0 0 0 -.2573.5351l-1.5342 10.356-5.3745 9.5967a1.0009 1.0009 0 0 0 -.1269.5244l.38 10.6484-4.5275 7.4317a.9984.9984 0 0 0 -.1323.6845l1.2577 7.5586-5.312 5.9766a1.0011 1.0011 0 0 0 -.2354.85l1.37 7.2689a49.952 49.952 0 0 1 -14.3088-16.5312l4.2573-7.6336a1.0015 1.0015 0 0 0 .1265-.4873v-10.2979l6.7124-6.3386a.9973.9973 0 0 0 .3134-.7266v-9.7849l5.2315-6.2646a.9925.9925 0 0 0 .1821-.3286l2.2119-6.7217 9.7749-4.8872a1.0022 1.0022 0 0 0 .4043-.3706l3.1219-5.0737a1 1 0 1 0 -1.7031-1.0479l-2.9732 4.8306-9.8926 4.9463a.9985.9985 0 0 0 -.5024.582l-2.2822 6.9355-5.3413 6.396a1 1 0 0 0 -.2325.6411v9.7168l-6.7117 6.3389a.9973.9973 0 0 0 -.3134.7266v10.4687l-3.4726 6.2259a49.2267 49.2267 0 0 1 -2.9132-7.7851 114.4441 114.4441 0 0 1 3.8369-11.4525c.6289-.7.5264-2.0645.0733-5.7852-.2129-1.7495-.5694-4.6772-.313-5.2749a81.1489 81.1489 0 0 1 4.9653-6.8549.9892.9892 0 0 0 .1861-.3843c1.08-4.4981 2.7573-9.7359 3.5307-10.3613a32.822 32.822 0 0 1 4.7759-2.2935 26.61 26.61 0 0 0 3.3745-1.5771c1.1719-.7813 4.3521-6.36 5.918-9.1924l9.2246-.7906a1 1 0 1 0 -.1709-1.9931l-9.7573.8364a1.0012 1.0012 0 0 0 -.7911.5151c-2.1448 3.9068-4.8748 8.4468-5.5327 8.9608a30.4209 30.4209 0 0 1 -3.0493 1.4014 31.4271 31.4271 0 0 0 -5.1919 2.5336c-1.6309 1.2234-3.4609 8.1326-4.2241 11.2815a77.9082 77.9082 0 0 0 -5.0468 7.0235c-.5078 1.0161-.2866 3.0982.1167 6.4107a25.1731 25.1731 0 0 1 .3262 4.3369c-.6566.9837-2.0143 5.0858-3.174 8.8223a49.5715 49.5715 0 0 1 45.7242-59.0875 18.9377 18.9377 0 0 0 -.5247 5.0473 20.7859 20.7859 0 0 1 -2.0949-.4893 1 1 0 1 0 -.5674 1.918 23.6453 23.6453 0 0 0 6.7373.9541 29.33 29.33 0 0 0 7.3008-.9673 1 1 0 1 0 -.4981-1.937 28.7327 28.7327 0 0 1 -4.3575.7688 11.8249 11.8249 0 0 1 .7692-5.2451 49.76 49.76 0 0 1 45.77 49.45c0 .7158-.0192 1.4282-.0491 2.1368l-5.3479 2.0187 1.4629-3.7962a.9988.9988 0 0 0 -.4644-1.2421l-1.77-.94.3467-5.1567a1 1 0 0 0 -.28-.7637l-4.7656-4.9028.4809-7.7544a1.0011 1.0011 0 0 0 -.3174-.795l-6.9028-6.4116-1.354-7.0932a1.0007 1.0007 0 0 0 -.51-.6939l-8.7319-4.6836a1 1 0 1 0 -.9453 1.7627l8.3115 4.458 1.3262 6.9473a1.0024 1.0024 0 0 0 .3017.5454l6.7968 6.3124-.479 7.7236a.9991.9991 0 0 0 .2808.7588l4.7632 4.9-.36 5.3579a.9988.9988 0 0 0 .5288.95l1.5586.8281-1.7858 4.6344-15.53 5.8622-1.9711-5.2251 1.5322-3.124a1 1 0 0 0 -.13-1.0811l-3.58-4.2959 2.061-8.4877a.9983.9983 0 0 0 -.0679-.6641l-2.8193-5.9453 1.4961-7.48a1 1 0 0 0 -.1719-.7847l-6.2446-8.5864a1 1 0 0 0 -1.6172 1.177l5.9868 8.2323-1.4751 7.3755a1 1 0 0 0 .0767.6245l2.81 5.9248-2.0966 8.6319a1.0008 1.0008 0 0 0 .2036.8769l3.4873 4.1846-1.437 2.9306a.9982.9982 0 0 0 -.0376.793l2.1243 5.63-13.4581 5.08 3.21-7.8921a1.0011 1.0011 0 0 0 -.0655-.8858l-2.58-4.3672 3.0657-10.1167a1.0013 1.0013 0 0 0 -.1089-.82l-3.6465-5.8344 3.74-10.4722a1.0009 1.0009 0 0 0 -.0918-.8628l-5.0737-8.1958a1 1 0 0 0 -1.7 1.0527l4.82 7.7866-3.7409 10.4745a1.0006 1.0006 0 0 0 .0937.8662l3.6622 5.8593-3.0621 10.1036a1.001 1.001 0 0 0 .0962.7988l2.5518 4.3183-3.7168 9.1387-.002.01-20.9387 7.904 2.4568-4.663a.9972.9972 0 0 0 .0523-.8145l-1.7935-4.8183 4.0791-7.5987a.9958.9958 0 0 0 .1079-.621l-1.1079-7.3887 7.1772-9.42a.9992.9992 0 0 0 .1958-.7373l-1.16-8.7574 3.5981-11.4975a1 1 0 0 0 -1.9092-.5977l-3.6636 11.7081a1.0008 1.0008 0 0 0 -.0366.43l1.1347 8.5674-7.1836 9.4282a1.0029 1.0029 0 0 0 -.1933.7549l1.1216 7.478-4.1358 7.7038a.9961.9961 0 0 0 -.0561.8213l1.7949 4.8233-3.3 6.2642-2.3114.8725h-.0005l-6.7519 2.5488a1 1 0 0 0 -.4624 1.5147 48.108 48.108 0 0 0 24.5768 17.9707 49.2884 49.2884 0 0 1 -26.6618-8.0687zm57.754 5.4183a46.2627 46.2627 0 0 1 -53.2706-15.4278l4.8547-1.8325a41.1026 41.1026 0 0 0 31.9867 15.3306 41.41 41.41 0 0 0 41.3693-43.0212l4.8484-1.83a46.2659 46.2659 0 0 1 -29.7885 46.7809z"/><path d="m65.0728 94.7109a.9988.9988 0 0 0 -1.34.4512l-1.9389 3.9043a1 1 0 1 0 1.791.8887l1.9389-3.9043a.9994.9994 0 0 0 -.451-1.3399z"/><path d="m75.4292 96.4941a1 1 0 0 0 -.9355 1.0606l.2729 4.3516a1 1 0 0 0 .9971.9375c.021 0 .0425-.001.0634-.002a1 1 0 0 0 .9356-1.0605l-.2727-4.3513a1.0042 1.0042 0 0 0 -1.0608-.9359z"/><path d="m86.6758 93.1406a1 1 0 0 0 -1.6658 1.1074l2.4119 3.632a1 1 0 0 0 1.666-1.1074z"/><path d="m97.2583 86.2734-3.9048-1.9394a1 1 0 1 0 -.89 1.791l3.9048 1.9395a1 1 0 1 0 .89-1.7911z"/></g></g></svg>